<svg xmlns="http://www.w3.org/2000/svg" fill="none" viewBox="43 107.52 225 42.95">
<g clip-path="url(#clip0_633_12784)">
<path d="M85.9497 136.2V139.738H75.2119V136.2C75.2119 135.707 75.4055 135.249 75.74 134.897C76.092 134.545 76.2681 134.087 76.2681 133.594V118.649C76.2681 117.84 75.6168 117.188 74.807 117.188H59.8622C59.3693 117.188 58.9116 117.382 58.5595 117.734C58.2075 118.069 57.7498 118.28 57.2569 118.28H53.7188V107.524H57.2569C57.7498 107.524 58.2075 107.718 58.5595 108.07C58.9116 108.405 59.3693 108.616 59.8622 108.616H80.528C82.922 108.616 84.8759 110.552 84.8759 112.964V133.612C84.8759 134.105 85.0695 134.563 85.404 134.915C85.756 135.249 85.9497 135.724 85.9497 136.217" fill="white"/>
<path d="M42.999 121.8V118.262H53.7368V121.8C53.7368 122.293 53.5432 122.751 53.2087 123.103C52.8566 123.455 52.6806 123.913 52.6806 124.406V139.368C52.6806 140.178 53.3319 140.829 54.1417 140.829H69.0865C69.5794 140.829 70.0371 140.636 70.3891 140.283C70.7236 139.949 71.1989 139.738 71.6918 139.738H75.2299V150.476H71.6918C71.1989 150.476 70.7412 150.282 70.3891 149.93C70.0371 149.595 69.5794 149.384 69.0865 149.384H48.4207C46.0267 149.384 44.0728 147.448 44.0728 145.036V124.388C44.0728 123.895 43.8792 123.437 43.5447 123.085C43.1927 122.751 43.0166 122.276 43.0166 121.783" fill="white"/>
<path d="M114.66 117.488C112.759 116.326 110.629 115.745 108.27 115.745C106.334 115.745 104.644 116.115 103.165 116.872C101.986 117.47 101 118.262 100.226 119.248V116.291H94.5225V150.476H100.578V138.893C101.317 139.685 102.197 140.319 103.218 140.794C104.732 141.498 106.387 141.85 108.2 141.85C110.612 141.85 112.777 141.269 114.678 140.125C116.579 138.981 118.075 137.414 119.184 135.425C120.293 133.436 120.839 131.236 120.839 128.806C120.839 126.377 120.276 124.159 119.167 122.188C118.04 120.234 116.544 118.667 114.643 117.505M113.674 132.714C113.058 133.841 112.231 134.739 111.175 135.372C110.119 136.006 108.904 136.34 107.513 136.34C106.123 136.34 105.014 136.024 103.958 135.372C102.901 134.721 102.074 133.841 101.476 132.714C100.877 131.588 100.578 130.285 100.578 128.806C100.578 127.328 100.877 126.078 101.476 124.951C102.074 123.825 102.901 122.927 103.958 122.293C105.014 121.66 106.193 121.325 107.513 121.325C108.834 121.325 110.119 121.642 111.175 122.293C112.231 122.945 113.058 123.825 113.674 124.951C114.291 126.078 114.59 127.381 114.59 128.806C114.59 130.232 114.291 131.588 113.674 132.714Z" fill="white"/>
<path d="M128.847 107.524H122.774V113.95H128.847V107.524Z" fill="white"/>
<path d="M128.847 116.766H122.774V141.762H128.847V116.766Z" fill="white"/>
<path d="M152.752 117.488C150.851 116.326 148.721 115.745 146.362 115.745C144.426 115.745 142.736 116.115 141.257 116.872C140.078 117.47 139.092 118.262 138.318 119.248V116.291H132.614V150.476H138.67V138.893C139.409 139.685 140.289 140.319 141.31 140.794C142.824 141.498 144.479 141.85 146.292 141.85C148.703 141.85 150.868 141.269 152.77 140.125C154.671 138.981 156.167 137.414 157.276 135.425C158.385 133.436 158.931 131.236 158.931 128.806C158.931 126.377 158.367 124.159 157.258 122.188C156.132 120.234 154.635 118.667 152.734 117.505M151.766 132.714C151.15 133.841 150.323 134.739 149.267 135.372C148.21 136.006 146.996 136.34 145.605 136.34C144.215 136.34 143.106 136.024 142.049 135.372C140.993 134.721 140.166 133.841 139.567 132.714C138.969 131.588 138.67 130.285 138.67 128.806C138.67 127.328 138.969 126.078 139.567 124.951C140.166 123.825 140.993 122.927 142.049 122.293C143.106 121.66 144.285 121.325 145.605 121.325C146.925 121.325 148.21 121.642 149.267 122.293C150.323 122.945 151.15 123.825 151.766 124.951C152.382 126.078 152.682 127.381 152.682 128.806C152.682 130.232 152.382 131.588 151.766 132.714Z" fill="white"/>
<path d="M181.64 119.371C180.601 118.245 179.334 117.347 177.855 116.713C176.376 116.062 174.651 115.745 172.68 115.745C170.321 115.745 168.208 116.308 166.343 117.453C164.477 118.579 162.98 120.128 161.889 122.064C160.78 124.018 160.234 126.236 160.234 128.754C160.234 131.271 160.762 133.383 161.836 135.372C162.91 137.361 164.424 138.946 166.36 140.107C168.297 141.269 170.567 141.85 173.137 141.85C174.827 141.85 176.394 141.586 177.82 141.076C179.263 140.548 180.495 139.826 181.534 138.91C182.572 137.995 183.347 136.939 183.822 135.742L178.946 133.348C178.401 134.334 177.644 135.108 176.675 135.689C175.707 136.27 174.546 136.569 173.155 136.569C171.764 136.569 170.55 136.252 169.494 135.601C168.437 134.95 167.645 134.052 167.1 132.873C166.783 132.169 166.571 131.394 166.483 130.549H184.474C184.597 130.179 184.685 129.775 184.72 129.334C184.773 128.894 184.79 128.437 184.79 127.979C184.79 126.289 184.509 124.723 183.963 123.261C183.417 121.8 182.608 120.515 181.569 119.389M169.265 121.677C170.25 121.043 171.359 120.709 172.609 120.709C173.929 120.709 175.056 121.026 175.989 121.677C176.922 122.329 177.591 123.191 178.013 124.3C178.207 124.811 178.313 125.339 178.348 125.902H166.589C166.695 125.374 166.835 124.881 167.029 124.441C167.54 123.244 168.279 122.329 169.265 121.677Z" fill="white"/>
<path d="M201.655 116.291L195.723 132.609L189.808 116.291H183.242L193.065 141.287H198.398L208.238 116.291H201.655Z" fill="white"/>
<path d="M230.416 123.244C229.871 121.783 229.061 120.498 228.022 119.371C226.984 118.245 225.716 117.347 224.238 116.713C222.759 116.062 221.034 115.745 219.062 115.745C216.704 115.745 214.591 116.308 212.725 117.453C210.859 118.579 209.363 120.128 208.272 122.064C207.163 124.018 206.617 126.236 206.617 128.754C206.617 131.271 207.145 133.383 208.219 135.372C209.293 137.361 210.807 138.946 212.743 140.107C214.679 141.269 216.95 141.85 219.52 141.85C221.21 141.85 222.777 141.586 224.202 141.076C225.646 140.548 226.878 139.826 227.917 138.91C228.955 137.995 229.73 136.939 230.205 135.742L225.329 133.348C224.783 134.334 224.026 135.108 223.058 135.689C222.09 136.27 220.928 136.569 219.538 136.569C218.147 136.569 216.95 136.252 215.876 135.601C214.82 134.95 214.028 134.052 213.482 132.873C213.165 132.169 212.954 131.394 212.884 130.549H230.874C230.997 130.179 231.085 129.775 231.12 129.334C231.173 128.894 231.191 128.437 231.191 127.979C231.191 126.289 230.909 124.723 230.364 123.261M215.665 121.677C216.651 121.043 217.76 120.709 219.01 120.709C220.33 120.709 221.456 121.026 222.389 121.677C223.322 122.329 223.991 123.191 224.414 124.3C224.607 124.811 224.713 125.339 224.748 125.902H212.989C213.095 125.374 213.236 124.881 213.43 124.441C213.94 123.244 214.679 122.329 215.665 121.677Z" fill="white"/>
<path d="M239.289 121.36C239.87 120.92 240.662 120.691 241.683 120.691C242.932 120.691 244.077 121.026 245.08 121.677C246.083 122.328 246.805 123.226 247.245 124.37L251.84 122.205C251.065 120.146 249.78 118.561 247.984 117.417C246.171 116.291 244.094 115.71 241.735 115.71C239.922 115.71 238.32 116.027 236.93 116.678C235.539 117.329 234.448 118.209 233.673 119.371C232.899 120.515 232.494 121.853 232.494 123.385C232.494 125.092 233.04 126.588 234.131 127.856C235.222 129.123 236.807 130.056 238.884 130.637L242.968 131.781C243.513 131.94 244.006 132.133 244.446 132.362C244.869 132.591 245.221 132.873 245.485 133.189C245.749 133.506 245.872 133.911 245.872 134.404C245.872 135.196 245.555 135.848 244.904 136.34C244.27 136.833 243.408 137.08 242.334 137.08C240.926 137.08 239.641 136.675 238.497 135.883C237.352 135.091 236.455 133.982 235.803 132.573L231.262 134.739C232.019 136.921 233.392 138.646 235.381 139.914C237.352 141.181 239.676 141.815 242.352 141.815C244.253 141.815 245.907 141.498 247.316 140.847C248.724 140.195 249.833 139.298 250.625 138.153C251.417 137.009 251.822 135.689 251.822 134.175C251.822 132.397 251.259 130.901 250.15 129.669C249.023 128.437 247.439 127.521 245.397 126.905L241.401 125.708C240.82 125.532 240.31 125.321 239.87 125.11C239.429 124.898 239.077 124.617 238.831 124.282C238.585 123.948 238.461 123.561 238.461 123.138C238.461 122.364 238.743 121.765 239.341 121.325" fill="white"/>
<path d="M267.154 136.235C266.855 136.27 266.609 136.288 266.397 136.288C265.412 136.288 264.62 136.129 263.986 135.83C263.352 135.531 262.895 135.073 262.613 134.492C262.314 133.911 262.173 133.207 262.173 132.38V121.677H267.911V116.308H262.173V110.587H256.1V112.524C256.1 113.756 255.765 114.689 255.114 115.323C254.445 115.974 253.512 116.291 252.28 116.291H251.822V121.66H256.1V132.679C256.1 135.495 256.874 137.678 258.441 139.227C260.008 140.776 262.19 141.551 265.007 141.551C265.465 141.551 265.975 141.516 266.521 141.463C267.066 141.41 267.559 141.34 267.999 141.287V136.147C267.718 136.182 267.436 136.2 267.154 136.235Z" fill="white"/>
</g>
<defs>
<clipPath id="clip0_633_12784">
<rect width="225" height="42.9511" fill="white" transform="translate(43 107.524)"/>
</clipPath>
</defs>
</svg>