<svg width="290" height="56" viewBox="0 0 290 56" fill="none" xmlns="http://www.w3.org/2000/svg">
<g clip-path="url(#clip0_691_3042)">
<path d="M55.3584 36.9864V41.5467H41.5186V36.9864C41.5186 36.3511 41.7682 35.7612 42.1993 35.3074C42.6531 34.8537 42.8799 34.2638 42.8799 33.6285V14.3663C42.8799 13.3226 42.0405 12.4831 40.9968 12.4831H21.7346C21.0993 12.4831 20.5094 12.7327 20.0556 13.1865C19.6019 13.6175 19.012 13.8898 18.3767 13.8898H13.8164V0.0273438H18.3767C19.012 0.0273438 19.6019 0.276913 20.0556 0.730677C20.5094 1.16175 21.0993 1.43401 21.7346 1.43401H48.3705C51.4561 1.43401 53.9744 3.92971 53.9744 7.03798V33.6512C53.9744 34.2865 54.224 34.8764 54.6551 35.3301C55.1088 35.7612 55.3584 36.3738 55.3584 37.009" fill="#0A3033"/>
<path d="M0 18.4275V13.8672H13.8398V18.4275C13.8398 19.0628 13.5902 19.6527 13.1591 20.1064C12.7054 20.5602 12.4785 21.1501 12.4785 21.7854V41.0703C12.4785 42.1139 13.3179 42.9534 14.3616 42.9534H33.6238C34.2591 42.9534 34.849 42.7038 35.3028 42.2501C35.7338 41.819 36.3464 41.5467 36.9817 41.5467H41.542V55.3865H36.9817C36.3464 55.3865 35.7565 55.1369 35.3028 54.6832C34.849 54.2521 34.2591 53.9798 33.6238 53.9798H6.98795C3.90236 53.9798 1.38398 51.4841 1.38398 48.3759V21.7627C1.38398 21.1274 1.13441 20.5375 0.703333 20.0837C0.24957 19.6527 0.0226882 19.0401 0.0226882 18.4048" fill="#0A3033"/>
<path d="M92.3634 12.8682C89.9131 11.3708 87.1679 10.6221 84.1277 10.6221C81.632 10.6221 79.4539 11.0985 77.5481 12.0741C76.028 12.8455 74.7574 13.8665 73.7592 15.137V11.3254H66.4082V55.3858H74.2129V40.457C75.1658 41.478 76.3002 42.2947 77.6161 42.9073C79.5673 43.8148 81.7 44.2686 84.0369 44.2686C87.1452 44.2686 89.9358 43.5199 92.3861 42.0452C94.8365 40.5704 96.765 38.5512 98.1943 35.9874C99.6237 33.4237 100.327 30.5876 100.327 27.4567C100.327 24.3257 99.601 21.467 98.1716 18.9259C96.7196 16.4075 94.7911 14.3883 92.3408 12.8909M91.0929 32.4935C90.2988 33.9455 89.2325 35.1026 87.8712 35.9194C86.5099 36.7361 84.9444 37.1672 83.1521 37.1672C81.3597 37.1672 79.9303 36.7588 78.5691 35.9194C77.2078 35.0799 76.1414 33.9455 75.37 32.4935C74.5986 31.0414 74.2129 29.3625 74.2129 27.4567C74.2129 25.5509 74.5986 23.94 75.37 22.488C76.1414 21.0359 77.2078 19.8788 78.5691 19.0621C79.9303 18.2453 81.4505 17.8142 83.1521 17.8142C84.8537 17.8142 86.5099 18.2226 87.8712 19.0621C89.2325 19.9015 90.2988 21.0359 91.0929 22.488C91.887 23.94 92.2727 25.6189 92.2727 27.4567C92.2727 29.2944 91.887 31.0414 91.0929 32.4935Z" fill="#0A3033"/>
<path d="M110.65 0.0273438H102.822V8.30852H110.65V0.0273438Z" fill="#0A3033"/>
<path d="M110.65 11.9385H102.822V44.1557H110.65V11.9385Z" fill="#0A3033"/>
<path d="M141.461 12.8682C139.011 11.3708 136.266 10.6221 133.225 10.6221C130.73 10.6221 128.552 11.0985 126.646 12.0741C125.126 12.8455 123.855 13.8665 122.857 15.137V11.3254H115.506V55.3858H123.311V40.457C124.263 41.478 125.398 42.2947 126.714 42.9073C128.665 43.8148 130.798 44.2686 133.135 44.2686C136.243 44.2686 139.033 43.5199 141.484 42.0452C143.934 40.5704 145.863 38.5512 147.292 35.9874C148.721 33.4237 149.425 30.5876 149.425 27.4567C149.425 24.3257 148.699 21.467 147.269 18.9259C145.817 16.4075 143.889 14.3883 141.438 12.8909M140.191 32.4935C139.396 33.9455 138.33 35.1026 136.969 35.9194C135.608 36.7361 134.042 37.1672 132.25 37.1672C130.457 37.1672 129.028 36.7588 127.667 35.9194C126.305 35.0799 125.239 33.9455 124.468 32.4935C123.696 31.0414 123.311 29.3625 123.311 27.4567C123.311 25.5509 123.696 23.94 124.468 22.488C125.239 21.0359 126.305 19.8788 127.667 19.0621C129.028 18.2453 130.548 17.8142 132.25 17.8142C133.951 17.8142 135.608 18.2226 136.969 19.0621C138.33 19.9015 139.396 21.0359 140.191 22.488C140.985 23.94 141.37 25.6189 141.37 27.4567C141.37 29.2944 140.985 31.0414 140.191 32.4935Z" fill="#0A3033"/>
<path d="M178.692 15.2958C177.354 13.8438 175.72 12.6867 173.814 11.8699C171.909 11.0305 169.685 10.6221 167.144 10.6221C164.104 10.6221 161.381 11.3481 158.976 12.8228C156.571 14.2749 154.643 16.2714 153.236 18.7671C151.807 21.2855 151.104 24.1442 151.104 27.3886C151.104 30.633 151.784 33.3556 153.168 35.9194C154.552 38.4831 156.503 40.5251 158.999 42.0225C161.495 43.5199 164.421 44.2686 167.734 44.2686C169.912 44.2686 171.931 43.9283 173.769 43.2703C175.629 42.5897 177.218 41.6595 178.556 40.4797C179.895 39.2999 180.893 37.9386 181.506 36.3958L175.221 33.3102C174.518 34.5808 173.542 35.579 172.294 36.3277C171.046 37.0765 169.549 37.4622 167.757 37.4622C165.964 37.4622 164.399 37.0538 163.037 36.2143C161.676 35.3748 160.655 34.2178 159.952 32.6976C159.544 31.7901 159.271 30.7918 159.158 29.7028H182.345C182.504 29.2264 182.617 28.7045 182.663 28.1373C182.731 27.5701 182.754 26.9802 182.754 26.3903C182.754 24.2123 182.39 22.193 181.687 20.3099C180.984 18.4268 179.94 16.7706 178.602 15.3185M162.743 18.268C164.013 17.4512 165.442 17.0201 167.053 17.0201C168.755 17.0201 170.207 17.4285 171.409 18.268C172.612 19.1074 173.474 20.2192 174.019 21.6485C174.268 22.3065 174.404 22.9871 174.45 23.7131H159.294C159.43 23.0325 159.612 22.3972 159.861 21.83C160.519 20.2872 161.472 19.1074 162.743 18.268Z" fill="#0A3033"/>
<path d="M204.489 11.3262L196.843 32.3581L189.22 11.3262H180.757L193.417 43.5434H200.291L212.974 11.3262H204.489Z" fill="#0A3033"/>
<path d="M241.561 20.2872C240.858 18.4041 239.814 16.7479 238.476 15.2958C237.137 13.8438 235.503 12.6867 233.598 11.8699C231.692 11.0305 229.468 10.6221 226.927 10.6221C223.887 10.6221 221.164 11.3481 218.76 12.8228C216.355 14.2749 214.426 16.2714 213.019 18.7671C211.59 21.2855 210.887 24.1442 210.887 27.3886C210.887 30.633 211.567 33.3556 212.951 35.9194C214.335 38.4831 216.287 40.5251 218.782 42.0225C221.278 43.5199 224.205 44.2686 227.517 44.2686C229.695 44.2686 231.714 43.9283 233.552 43.2703C235.413 42.5897 237.001 41.6595 238.339 40.4797C239.678 39.2999 240.676 37.9386 241.289 36.3958L235.004 33.3102C234.301 34.5808 233.325 35.579 232.077 36.3277C230.83 37.0765 229.332 37.4622 227.54 37.4622C225.747 37.4622 224.205 37.0538 222.821 36.2143C221.459 35.3748 220.438 34.2178 219.735 32.6976C219.327 31.7901 219.054 30.7918 218.964 29.7028H242.151C242.31 29.2264 242.423 28.7045 242.469 28.1373C242.537 27.5701 242.559 26.9802 242.559 26.3903C242.559 24.2123 242.196 22.193 241.493 20.3099M222.548 18.268C223.819 17.4512 225.248 17.0201 226.859 17.0201C228.561 17.0201 230.013 17.4285 231.215 18.268C232.418 19.1074 233.28 20.2192 233.824 21.6485C234.074 22.3065 234.21 22.9871 234.256 23.7131H219.1C219.236 23.0325 219.417 22.3972 219.667 21.83C220.325 20.2872 221.278 19.1074 222.548 18.268Z" fill="#0A3033"/>
<path d="M252.996 17.86C253.745 17.2928 254.766 16.9979 256.082 16.9979C257.693 16.9979 259.167 17.429 260.461 18.2684C261.754 19.1079 262.684 20.265 263.251 21.7397L269.173 18.9491C268.175 16.2946 266.518 14.2526 264.204 12.7779C261.867 11.3259 259.19 10.5771 256.15 10.5771C253.813 10.5771 251.748 10.9855 249.956 11.825C248.164 12.6645 246.757 13.7989 245.759 15.2963C244.76 16.771 244.239 18.4953 244.239 20.4692C244.239 22.6699 244.942 24.5984 246.349 26.232C247.755 27.8655 249.797 29.068 252.474 29.8167L257.738 31.2914C258.441 31.4956 259.077 31.7452 259.644 32.0401C260.188 32.3351 260.642 32.6981 260.982 33.1065C261.323 33.5149 261.482 34.0367 261.482 34.672C261.482 35.6929 261.073 36.5324 260.234 37.1677C259.417 37.8029 258.305 38.1206 256.921 38.1206C255.106 38.1206 253.45 37.5987 251.975 36.5778C250.5 35.5568 249.343 34.1275 248.504 32.3124L242.65 35.103C243.626 37.9164 245.396 40.1398 247.959 41.7734C250.501 43.4069 253.495 44.2237 256.944 44.2237C259.394 44.2237 261.527 43.8153 263.342 42.9758C265.157 42.1364 266.586 40.9793 267.607 39.5045C268.628 38.0298 269.15 36.3282 269.15 34.377C269.15 32.0855 268.424 30.157 266.995 28.5689C265.543 26.9807 263.501 25.8009 260.869 25.0068L255.719 23.464C254.97 23.2371 254.312 22.9649 253.745 22.6926C253.178 22.4204 252.724 22.0574 252.406 21.6263C252.089 21.1952 251.93 20.6961 251.93 20.1515C251.93 19.1533 252.293 18.3819 253.064 17.8147" fill="#0A3033"/>
<path d="M288.911 37.0322C288.525 37.0776 288.207 37.1003 287.935 37.1003C286.665 37.1003 285.644 36.8961 284.827 36.5104C284.01 36.1247 283.42 35.5348 283.057 34.7861C282.672 34.0374 282.49 33.1299 282.49 32.0635V18.2691H289.886V11.3492H282.49V3.97559H274.663V6.47128C274.663 8.05945 274.232 9.26193 273.392 10.0787C272.53 10.9182 271.327 11.3265 269.739 11.3265H269.149V18.2464H274.663V32.4492C274.663 36.0793 275.661 38.8927 277.68 40.8892C279.699 42.8858 282.513 43.8841 286.143 43.8841C286.733 43.8841 287.391 43.8387 288.094 43.7706C288.797 43.7025 289.433 43.6118 290 43.5437V36.9188C289.637 36.9642 289.274 36.9869 288.911 37.0322Z" fill="#0A3033"/>
</g>
<defs>
<clipPath id="clip0_691_3042">
<rect width="290" height="55.3591" fill="white" transform="translate(0 0.0273438)"/>
</clipPath>
</defs>
</svg>
