<?xml version="1.0" encoding="UTF-8"?>
<svg version="1.1" xmlns="http://www.w3.org/2000/svg" width="3181" height="640">
<path d="M0 0 C46 0 46 0 51 3 C52.07421875 5.41015625 52.07421875 5.41015625 52.6875 8.0625 C53.54829216 11.95151479 53.54829216 11.95151479 56 15 C58.00402649 15.3041721 58.00402649 15.3041721 60.34165668 15.2561264 C61.71807865 15.26547455 61.71807865 15.26547455 63.12230712 15.27501154 C64.13714917 15.27171257 65.15199122 15.26841359 66.19758606 15.26501465 C67.27070296 15.26939592 68.34381985 15.27377719 69.44945544 15.27829123 C73.07026773 15.29068019 76.69093645 15.28879835 80.31176758 15.28710938 C82.89864824 15.2931298 85.48552693 15.30005307 88.07240295 15.30781555 C93.65883891 15.32329915 99.24524955 15.33168682 104.83170509 15.33552551 C112.93170597 15.34127472 121.03163905 15.35986789 129.13161 15.38196605 C142.30265402 15.41773069 155.47370189 15.44601592 168.64477539 15.46826172 C169.4336394 15.46959671 170.22250341 15.4709317 171.03527238 15.47230715 C176.62768129 15.48172414 182.2200906 15.49088164 187.8125 15.5 C194.16772495 15.51037845 200.52294963 15.52090425 206.87817383 15.53173828 C207.66031574 15.53306902 208.44245765 15.53439977 209.24830083 15.53577083 C222.34645844 15.55829678 235.44458773 15.58854611 248.54271621 15.62413073 C256.6070993 15.64566843 264.67143823 15.66038052 272.73584845 15.66596949 C278.94344147 15.67076736 285.15097452 15.68563581 291.35854149 15.70396996 C293.88626939 15.70979478 296.41400762 15.71232896 298.94174194 15.71113014 C310.51841391 15.70720886 322.02561404 15.80953366 333.55986023 16.88122559 C334.37671698 16.95702048 335.19357374 17.03281537 336.03518373 17.11090708 C366.99721826 20.37373414 396.5067306 36.83398673 416.39404297 60.67089844 C425.95484825 72.55837535 433.43632659 85.61440386 438.375 100.0625 C438.71494995 101.05020386 438.71494995 101.05020386 439.06176758 102.05786133 C444.34490136 118.65830612 444.42845569 134.90507144 444.38476562 152.16479492 C444.38720041 154.88807979 444.39418763 157.61134839 444.40104675 160.33462524 C444.41353591 166.16914656 444.41561308 172.00359377 444.41069031 177.83812523 C444.40384729 186.27902836 444.41645943 194.71982087 444.43419749 203.16070417 C444.46275799 216.86697827 444.48033785 230.57324034 444.48876953 244.27954102 C444.48927671 245.09758173 444.48978389 245.91562245 444.49030644 246.75845227 C444.49434124 253.40093647 444.49783761 260.04342094 444.50130367 266.68590546 C444.50436324 272.50878414 444.50763499 278.33166264 444.51123047 284.15454102 C444.51198439 285.38509179 444.51198439 285.38509179 444.51275355 286.64050218 C444.52149334 300.31307601 444.54191349 313.98560837 444.57071257 327.65815431 C444.58788738 336.08130712 444.59447979 344.50434263 444.58740652 352.92751066 C444.58323187 358.6896164 444.58956171 364.45164797 444.60420525 370.21373644 C444.61227135 373.53803428 444.61372083 376.86199502 444.60538292 380.18631554 C444.59704114 383.78785449 444.60694621 387.38889366 444.62145996 390.99040222 C444.61456603 392.04271678 444.60767209 393.09503133 444.60056925 394.17923421 C444.59714381 401.10726328 444.59714381 401.10726328 448 407 C450.36666932 408.08861241 450.36666932 408.08861241 453 408.5625 C457.64705327 409.56521239 457.86824743 409.8243299 461 414 C461 429.51 461 445.02 461 461 C407.87 461 354.74 461 300 461 C300 514.13 300 567.26 300 622 C254 622 254 622 249 619 C247.99609375 616.87890625 247.99609375 616.87890625 247.4375 614.5625 C246.4516606 610.54435456 245.40907672 608.45489241 242 606 C238.38631617 605.38759233 234.79486547 605.47148707 231.13757324 605.50793457 C229.45689766 605.50091609 229.45689766 605.50091609 227.74226904 605.49375582 C223.97313041 605.48278952 220.20465434 605.50034309 216.43554688 605.51757812 C213.73835837 605.51539302 211.04121817 605.51160385 208.34403992 605.50572205 C202.52567817 605.49603312 196.70746611 605.50051907 190.88911438 605.5141449 C182.45497511 605.53352292 174.02100378 605.52705999 165.58686012 605.51357108 C151.87446751 605.49197211 138.16211448 605.48527853 124.44970703 605.49072266 C123.62881495 605.49104329 122.80792288 605.49136392 121.96215528 605.49169427 C115.31082918 605.49440358 108.65950349 605.4978302 102.00817776 605.50129986 C96.21752878 605.50429245 90.42687977 605.50700212 84.63623047 605.50927734 C83.82119165 605.50960285 83.00615283 605.50992837 82.16641587 605.51026374 C68.524659 605.51522438 54.88295689 605.50444932 41.24121714 605.48270559 C32.84189084 605.47007108 24.44279192 605.47134991 16.04347825 605.49115646 C10.26992835 605.50386529 4.4964926 605.50221044 -1.27705741 605.48978293 C-4.59714835 605.4831383 -7.91663301 605.48497733 -11.23673439 605.5003643 C-49.80628058 605.66889281 -82.31076159 595.58049463 -110.25 568.1875 C-123.44855012 554.866281 -133.25859489 538.80457937 -139.375 521.0625 C-139.71470825 520.10017456 -139.71470825 520.10017456 -140.0612793 519.1184082 C-145.56064592 502.01271204 -145.42520943 484.44929666 -145.36889648 466.68408203 C-145.36968217 463.96873341 -145.37505061 461.25339859 -145.38031006 458.53805542 C-145.38939902 452.72702575 -145.3881907 446.91607533 -145.38012505 441.10504532 C-145.36882474 432.69925797 -145.37799327 424.29358197 -145.39268685 415.88780425 C-145.41636981 402.23916959 -145.42981148 388.59054876 -145.43383789 374.94189453 C-145.43408276 374.12771312 -145.43432763 373.31353172 -145.43457992 372.47467814 C-145.43713082 363.37264486 -145.43768957 354.27061265 -145.43664551 345.1685791 C-145.43631238 341.85668946 -145.43602703 338.54479981 -145.43579102 335.23291016 C-145.43569683 334.00677994 -145.43569683 334.00677994 -145.43560075 332.75587942 C-145.43499642 319.13635053 -145.44984815 305.51688574 -145.47662407 291.89738357 C-145.49243082 283.50784129 -145.49468576 275.11850583 -145.47949005 266.72896133 C-145.47004432 260.99256277 -145.47475015 255.25628939 -145.49070387 249.51990558 C-145.49941795 246.20986381 -145.49931164 242.90022421 -145.48617744 239.59018707 C-145.47289733 236.00579147 -145.48393889 232.42228024 -145.50120544 228.83792114 C-145.49139867 227.78794893 -145.48159189 226.73797673 -145.47148794 225.65618718 C-145.44100298 220.13697728 -145.44100298 220.13697728 -147.90617466 215.36340141 C-150.6240321 213.5936594 -152.84046917 213.22329431 -156 212.78515625 C-158 212 -158 212 -162 207 C-162 191.49 -162 175.98 -162 160 C-108.54 160 -55.08 160 0 160 C0 107.2 0 54.4 0 0 Z M54 148 C52.09681116 150.85478326 51.5380901 152.41941308 50.875 155.6875 C50.70742187 156.49574219 50.53984375 157.30398437 50.3671875 158.13671875 C50.24601562 158.75160156 50.12484375 159.36648437 50 160 C47.05304966 160.84069555 44.38368081 161.14646768 41.32324219 161.20532227 C40.40258972 161.22526749 39.48193726 161.24521271 38.53338623 161.26576233 C37.54783752 161.28247482 36.56228882 161.29918732 35.546875 161.31640625 C34.53151672 161.33718735 33.51615845 161.35796844 32.47003174 161.37937927 C29.23008927 161.44470597 25.99006652 161.50368137 22.75 161.5625 C20.55207507 161.60570126 18.35415822 161.64931607 16.15625 161.69335938 C10.77091794 161.80037007 5.3855062 161.90216773 0 162 C-0.00213753 162.82899055 -0.00213753 162.82899055 -0.00431824 163.67472839 C-0.02402587 169.43412722 -0.07832141 175.1924677 -0.15258789 180.95141602 C-0.17576522 183.09977624 -0.19016297 185.24825004 -0.19555664 187.39672852 C-0.20484791 190.48786173 -0.24584351 193.57720912 -0.29296875 196.66796875 C-0.28706978 198.10573921 -0.28706978 198.10573921 -0.28105164 199.57255554 C-0.38097689 204.15372222 -0.49504471 206.32908448 -3.31762695 210.0793457 C-6.44223883 212.3166554 -9.32138383 212.97816218 -13 214 C-15.03298338 215.7751237 -15.8892585 217.22316917 -16.27177894 219.90647817 C-16.39242403 222.40021581 -16.40435615 224.87654521 -16.38768005 227.37319946 C-16.39306559 228.33327986 -16.39845113 229.29336026 -16.40399987 230.282534 C-16.4183379 233.50830959 -16.41116111 236.73367819 -16.40405273 239.95947266 C-16.40975342 242.26893444 -16.4167165 244.5783934 -16.42485046 246.8878479 C-16.44283514 253.16911432 -16.4416029 259.45024144 -16.43590808 265.7315259 C-16.43282235 270.97483689 -16.43890217 276.21812089 -16.44494683 281.46142805 C-16.45981395 294.54313118 -16.45616413 307.62475598 -16.44408352 320.70645885 C-16.43416297 332.0547322 -16.4470699 343.40284222 -16.47101771 354.75109036 C-16.49543657 366.41075248 -16.50460984 378.07033185 -16.49836498 389.73001897 C-16.49499535 396.27297142 -16.49741053 402.81578911 -16.51461601 409.35872269 C-16.53010013 415.51637485 -16.52611285 421.6737161 -16.50731087 427.83135605 C-16.50362838 430.08796378 -16.50672346 432.3445946 -16.51719666 434.60118103 C-16.53043192 437.68944314 -16.51883564 440.77667997 -16.50120544 443.86489868 C-16.51081045 444.75130559 -16.52041546 445.63771249 -16.53031152 446.55098021 C-16.44366038 453.9632135 -14.44879218 460.46047942 -10.2109375 466.5859375 C-9.30214844 467.47152344 -9.30214844 467.47152344 -8.375 468.375 C-7.78460938 468.98085938 -7.19421875 469.58671875 -6.5859375 470.2109375 C0.50246535 475.11499868 7.6951199 476.5929036 16.17306519 476.50793457 C17.14658908 476.51417453 18.12011297 476.5204145 19.12313759 476.52684355 C22.35822311 476.54269298 25.59254673 476.53020092 28.82763672 476.51757812 C31.15757178 476.52300259 33.48750342 476.53012707 35.81742859 476.53881836 C42.1248411 476.55700974 48.43199109 476.55000291 54.73940802 476.53730202 C60.67282734 476.52818866 66.60621453 476.53515195 72.53963472 476.5410108 C84.99962942 476.55239583 97.45950607 476.5393328 109.91948141 476.51780933 C120.6097913 476.49991503 131.29992756 476.50306557 141.99023438 476.52148438 C154.41669831 476.54288456 166.84305922 476.55132382 179.269539 476.53903532 C185.84350132 476.53279383 192.417344 476.53198353 198.99129868 476.54518127 C205.16544103 476.55671179 211.33925428 476.54876504 217.51336098 476.52560425 C219.78216441 476.5203036 222.05099542 476.52185396 224.31978798 476.53065491 C227.4098482 476.54153931 230.49884476 476.52793266 233.58883667 476.50793457 C234.49251885 476.51685746 235.39620104 476.52578034 236.32726753 476.53497362 C241.29584169 476.50047807 241.29584169 476.50047807 245.54303169 474.09545135 C247.03888625 471.94407274 247.6327078 470.50143278 248.0625 467.9375 C248.62613404 464.63802434 249.36457681 463.11565185 252 461 C254.14506531 460.60127258 254.14506531 460.60127258 256.6550293 460.56762695 C257.59577805 460.54783279 258.53652679 460.52803864 259.50578308 460.50764465 C261.02465874 460.49805977 261.02465874 460.49805977 262.57421875 460.48828125 C264.13267265 460.46135445 264.13267265 460.46135445 265.72261047 460.43388367 C269.04419891 460.37965957 272.36564266 460.34584572 275.6875 460.3125 C277.93817123 460.27933766 280.18882334 460.24484903 282.43945312 460.20898438 C287.95950568 460.12392632 293.47957669 460.05562777 299 460 C299.01458252 458.69329346 299.02916504 457.38658691 299.04418945 456.0402832 C299.10222815 451.18518925 299.17946116 446.33055637 299.26245117 441.47583008 C299.29567422 439.37597139 299.3237143 437.27602397 299.34643555 435.17602539 C299.38002936 432.15472656 299.43234834 429.13423899 299.48828125 426.11328125 C299.49467117 425.17664139 299.5010611 424.24000153 299.50764465 423.27497864 C299.61692222 418.41380886 299.76219056 414.90460584 303 411 C305.15625 409.9609375 305.15625 409.9609375 307.5 409.375 C310.90416848 408.50126342 312.76002007 407.75127385 315 405 C315.44884232 403.07194346 315.44884232 403.07194346 315.38311005 400.92623806 C315.39216669 400.09390036 315.40122333 399.26156266 315.41055441 398.40400261 C315.40522648 397.48962569 315.39989856 396.57524876 315.39440918 395.63316345 C315.40354584 394.17594851 315.40354584 394.17594851 315.41286707 392.68929487 C315.42957713 389.41896668 315.42470972 386.14902444 315.41992188 382.87866211 C315.42725782 380.53979078 315.43584265 378.20092308 315.44558716 375.86206055 C315.46786864 369.49603544 315.47073029 363.13013952 315.46883965 356.76408076 C315.46873523 352.1204428 315.47517025 347.47683175 315.4824672 342.83320041 C315.48402643 341.83941919 315.48402643 341.83941919 315.48561716 340.82556158 C315.48666069 340.16062992 315.48770422 339.49569826 315.48877937 338.81061716 C315.50769368 326.22650856 315.50662878 313.6424582 315.49981004 301.05834127 C315.49424178 289.55801201 315.51502711 278.05790603 315.54817051 266.55762892 C315.58195098 254.74431682 315.59706989 242.93111151 315.59245348 231.11775023 C315.59021213 224.48757137 315.59586283 217.85757304 315.62034607 211.22743034 C315.64262704 204.98684709 315.64072339 198.74672713 315.62041855 192.50614166 C315.61701028 190.21889193 315.62208957 187.93161095 315.63640213 185.64440346 C315.65463288 182.51430591 315.64181563 179.38577338 315.62145996 176.25572205 C315.63397781 175.35696018 315.64649566 174.45819831 315.65939283 173.53220123 C315.55436642 165.96489443 313.19182623 159.47641238 308.02342367 153.84719032 C299.65290842 145.9781473 290.6749852 144.84855936 279.58042908 144.85955811 C278.63961331 144.85658698 277.69879755 144.85361586 276.72947222 144.8505547 C273.58127646 144.84189242 270.43311883 144.84036158 267.28491211 144.83886719 C265.02615783 144.83423745 262.76740433 144.82921258 260.50865173 144.82382202 C254.37663576 144.81071542 248.24463073 144.80425705 242.11260295 144.79981136 C238.282923 144.79687927 234.45324603 144.79277431 230.62356758 144.78830719 C220.01619435 144.77620479 209.40882372 144.76581929 198.80144405 144.7624321 C197.78432097 144.76210275 197.78432097 144.76210275 196.74664995 144.76176675 C196.06697781 144.76154847 195.38730567 144.76133019 194.68703741 144.7611053 C193.30983158 144.76066184 191.93262575 144.76021527 190.55541992 144.75976562 C189.87228309 144.7595442 189.18914625 144.75932277 188.4853083 144.75909463 C177.4054109 144.7551429 166.32557912 144.73767407 155.24570709 144.7144061 C143.86513312 144.69069968 132.48460321 144.67848875 121.10400015 144.67706418 C114.71606855 144.67601463 108.32822966 144.67007433 101.94032097 144.65224457 C95.93620119 144.63581086 89.93224433 144.6335855 83.92811012 144.64238358 C81.72260986 144.64315634 79.517101 144.63877995 77.31162262 144.62892532 C74.30508152 144.616277 71.29912377 144.62204384 68.29258728 144.63250732 C67.4163261 144.62445092 66.54006492 144.61639452 65.63725036 144.60809398 C60.94163032 144.64641702 57.78919231 144.91459264 54 148 Z " fill="#2077E3" transform="translate(162,0)"/>
<path d="M0 0 C46 0 46 0 51 3 C52.07421875 5.41015625 52.07421875 5.41015625 52.6875 8.0625 C53.54829216 11.95151479 53.54829216 11.95151479 56 15 C58.00402649 15.3041721 58.00402649 15.3041721 60.34165668 15.2561264 C61.71807865 15.26547455 61.71807865 15.26547455 63.12230712 15.27501154 C64.13714917 15.27171257 65.15199122 15.26841359 66.19758606 15.26501465 C67.27070296 15.26939592 68.34381985 15.27377719 69.44945544 15.27829123 C73.07026773 15.29068019 76.69093645 15.28879835 80.31176758 15.28710938 C82.89864824 15.2931298 85.48552693 15.30005307 88.07240295 15.30781555 C93.65883891 15.32329915 99.24524955 15.33168682 104.83170509 15.33552551 C112.93170597 15.34127472 121.03163905 15.35986789 129.13161 15.38196605 C142.30265402 15.41773069 155.47370189 15.44601592 168.64477539 15.46826172 C169.4336394 15.46959671 170.22250341 15.4709317 171.03527238 15.47230715 C176.62768129 15.48172414 182.2200906 15.49088164 187.8125 15.5 C194.16772495 15.51037845 200.52294963 15.52090425 206.87817383 15.53173828 C207.66031574 15.53306902 208.44245765 15.53439977 209.24830083 15.53577083 C222.34645844 15.55829678 235.44458773 15.58854611 248.54271621 15.62413073 C256.6070993 15.64566843 264.67143823 15.66038052 272.73584845 15.66596949 C278.94344147 15.67076736 285.15097452 15.68563581 291.35854149 15.70396996 C293.88626939 15.70979478 296.41400762 15.71232896 298.94174194 15.71113014 C310.51841391 15.70720886 322.02561404 15.80953366 333.55986023 16.88122559 C334.37671698 16.95702048 335.19357374 17.03281537 336.03518373 17.11090708 C366.99721826 20.37373414 396.5067306 36.83398673 416.39404297 60.67089844 C425.95484825 72.55837535 433.43632659 85.61440386 438.375 100.0625 C438.71494995 101.05020386 438.71494995 101.05020386 439.06176758 102.05786133 C444.34490136 118.65830612 444.42845569 134.90507144 444.38476562 152.16479492 C444.38720041 154.88807979 444.39418763 157.61134839 444.40104675 160.33462524 C444.41353591 166.16914656 444.41561308 172.00359377 444.41069031 177.83812523 C444.40384729 186.27902836 444.41645943 194.71982087 444.43419749 203.16070417 C444.46275799 216.86697827 444.48033785 230.57324034 444.48876953 244.27954102 C444.48927671 245.09758173 444.48978389 245.91562245 444.49030644 246.75845227 C444.49434124 253.40093647 444.49783761 260.04342094 444.50130367 266.68590546 C444.50436324 272.50878414 444.50763499 278.33166264 444.51123047 284.15454102 C444.51198439 285.38509179 444.51198439 285.38509179 444.51275355 286.64050218 C444.52149334 300.31307601 444.54191349 313.98560837 444.57071257 327.65815431 C444.58788738 336.08130712 444.59447979 344.50434263 444.58740652 352.92751066 C444.58323187 358.6896164 444.58956171 364.45164797 444.60420525 370.21373644 C444.61227135 373.53803428 444.61372083 376.86199502 444.60538292 380.18631554 C444.59704114 383.78785449 444.60694621 387.38889366 444.62145996 390.99040222 C444.61456603 392.04271678 444.60767209 393.09503133 444.60056925 394.17923421 C444.59714381 401.10726328 444.59714381 401.10726328 448 407 C450.36666932 408.08861241 450.36666932 408.08861241 453 408.5625 C457.64705327 409.56521239 457.86824743 409.8243299 461 414 C461 429.51 461 445.02 461 461 C407.54 461 354.08 461 299 461 C299 416 299 416 302 411 C305 409 305 409 308.5625 408 C312.03073325 407.29022994 312.03073325 407.29022994 314 405 C314.20478994 401.88895025 314.28235011 398.86618527 314.27415466 395.75341797 C314.27939134 394.78279576 314.28462802 393.81217356 314.29002339 392.81213856 C314.3051019 389.5387806 314.30573027 386.26557789 314.30639648 382.9921875 C314.31401298 380.6534651 314.32243959 378.31474523 314.33161926 375.97602844 C314.35362831 369.6058391 314.36237238 363.23569778 314.36744571 356.8654747 C314.37108337 352.88635433 314.3773205 348.90724665 314.3844471 344.9281311 C314.40402168 333.9083131 314.42041927 322.88850411 314.42332363 311.8686676 C314.42360499 310.81015776 314.42360499 310.81015776 314.42389202 309.73026389 C314.42425828 308.29968993 314.42462197 306.86911597 314.42498314 305.43854201 C314.42516595 304.72840811 314.42534876 304.0182742 314.42553711 303.28662109 C314.42571766 302.57561827 314.42589821 301.86461545 314.42608423 301.13206708 C314.42962172 289.62521531 314.4566135 278.11855119 314.494035 266.61176443 C314.53215954 254.79397311 314.55148144 242.97627473 314.55178314 231.15842056 C314.552367 224.52486262 314.56132706 217.89150173 314.58978081 211.25799561 C314.61596488 205.01333809 314.61816417 198.76912241 314.60212517 192.52443504 C314.60031067 190.23556746 314.60700137 187.94667449 314.62294388 185.65786171 C314.64342634 182.52553788 314.63283851 179.39475648 314.61473083 176.26245117 C314.63453079 174.91328519 314.63453079 174.91328519 314.65473074 173.53686333 C314.55749279 166.13920105 312.29402865 159.62718023 307.25801653 154.08183575 C299.2617073 146.64218143 289.97351651 145.84925477 279.58042908 145.85955811 C278.63961331 145.85658698 277.69879755 145.85361586 276.72947222 145.8505547 C273.58127646 145.84189242 270.43311883 145.84036158 267.28491211 145.83886719 C265.02615783 145.83423745 262.76740433 145.82921258 260.50865173 145.82382202 C254.37663576 145.81071542 248.24463073 145.80425705 242.11260295 145.79981136 C238.282923 145.79687927 234.45324603 145.79277431 230.62356758 145.78830719 C220.01619435 145.77620479 209.40882372 145.76581929 198.80144405 145.7624321 C197.78432097 145.76210275 197.78432097 145.76210275 196.74664995 145.76176675 C196.06697781 145.76154847 195.38730567 145.76133019 194.68703741 145.7611053 C193.30983158 145.76066184 191.93262575 145.76021527 190.55541992 145.75976562 C189.87228309 145.7595442 189.18914625 145.75932277 188.4853083 145.75909463 C177.4054109 145.7551429 166.32557912 145.73767407 155.24570709 145.7144061 C143.86513312 145.69069968 132.48460321 145.67848875 121.10400015 145.67706418 C114.71606855 145.67601463 108.32822966 145.67007433 101.94032097 145.65224457 C95.93620119 145.63581086 89.93224433 145.6335855 83.92811012 145.64238358 C81.72260986 145.64315634 79.517101 145.63877995 77.31162262 145.62892532 C74.30508152 145.616277 71.29912377 145.62204384 68.29258728 145.63250732 C67.4163261 145.62445092 66.54006492 145.61639452 65.63725036 145.60809398 C60.94754553 145.64636874 57.79218629 145.91947622 54 149 C52.88289778 151.13196502 52.88289778 151.13196502 52.375 153.5 C51.50674277 156.88282037 50.71159467 158.74263185 48 161 C33.68605963 168.15697018 16.00347185 162 0 162 C0 108.54 0 55.08 0 0 Z " fill="#FE655F" transform="translate(162,0)"/>
<path d="M0 0 C0.81339844 0.59039062 1.62679687 1.18078125 2.46484375 1.7890625 C33.14539217 25.15998269 49.78723437 59.22687217 55 97 C55.89489084 104.54374229 56.18248521 112.0326071 56.1875 119.625 C56.19974609 120.57761719 56.21199219 121.53023437 56.22460938 122.51171875 C56.24255646 131.59294289 55.08465964 139.78039309 54 149 C-17.28 149 -88.56 149 -162 149 C-157.22474751 171.68244934 -151.70110532 190.54123581 -132.04296875 203.8425293 C-126.90978498 207.186277 -121.74215197 209.87790036 -116 212 C-115.17242188 212.31839844 -114.34484375 212.63679687 -113.4921875 212.96484375 C-97.01643899 218.17656012 -76.27772704 216.50921239 -60.75 209.25 C-48.28626246 202.53497715 -40.35478864 193.70957728 -34 181 C-6.94 181 20.12 181 48 181 C46.65466204 187.0540208 45.41784041 192.0990619 42.9375 197.625 C42.48286377 198.64533325 42.48286377 198.64533325 42.01904297 199.6862793 C36.55343123 211.62215002 29.65246787 222.12034189 21 232 C20.35417969 232.77859375 19.70835937 233.5571875 19.04296875 234.359375 C13.95989967 240.36381505 8.22487874 245.21163174 2 250 C1.1234375 250.680625 0.246875 251.36125 -0.65625 252.0625 C-15.07642309 262.92004209 -30.54236946 270.27466819 -48 274.75 C-48.76973145 274.94875732 -49.53946289 275.14751465 -50.33251953 275.35229492 C-63.37126635 278.50587115 -76.33916939 279.38109079 -89.6875 279.3125 C-90.79943726 279.30976578 -90.79943726 279.30976578 -91.93383789 279.30697632 C-103.82667271 279.25791821 -115.37100736 278.63611257 -127 276 C-127.75055664 275.83371094 -128.50111328 275.66742188 -129.27441406 275.49609375 C-165.87999731 267.08817586 -197.07846316 244.71137613 -217 213 C-241.05831737 174.03847651 -244.33907988 123.84182156 -234.04931641 80.05444336 C-231.21497188 68.78562296 -227.19431689 58.37770988 -222 48 C-221.50757812 46.989375 -221.01515625 45.97875 -220.5078125 44.9375 C-204.51120335 13.84804494 -175.65794621 -8.87500932 -142.59228516 -19.53979492 C-96.0770808 -33.74753684 -39.9512814 -29.4255435 0 0 Z M-146.25 59.6875 C-154.45073433 70.54339011 -161 84.26233076 -161 98 C-115.46 98 -69.92 98 -23 98 C-23 80.9017309 -28.24316499 67.40024389 -40 55 C-58.04045508 39.17951605 -77.82914795 34.55038266 -101.24462891 35.77246094 C-118.95854159 37.23527917 -134.80491047 46.28353938 -146.25 59.6875 Z " fill="#000000" transform="translate(2627,227)"/>
<path d="M0 0 C2.27046715 0.01611299 4.53915551 0.00001561 6.80957031 -0.01904297 C43.10523911 -0.07182707 76.63047262 14.89499968 102.23535156 40.29345703 C109.33491717 47.57969172 115.02068076 55.70144856 120.27050781 64.39111328 C120.85445312 65.35114258 120.85445312 65.35114258 121.45019531 66.33056641 C143.99319137 104.11656148 147.4407943 153.40226262 137.02050781 195.62158203 C130.81295521 219.30892486 120.09671132 241.44927104 103.27050781 259.39111328 C102.7287793 259.97521973 102.18705078 260.55932617 101.62890625 261.16113281 C93.85254242 269.47264904 85.96994252 276.35912652 76.27050781 282.39111328 C75.29597656 283.01501953 74.32144531 283.63892578 73.31738281 284.28173828 C44.40911471 302.05955022 6.31782858 307.51061201 -26.81542969 300.35986328 C-28.12217118 300.0453616 -29.42692098 299.72246339 -30.72949219 299.39111328 C-31.39368164 299.22482422 -32.05787109 299.05853516 -32.7421875 298.88720703 C-62.49355795 291.14468171 -86.77029319 273.0850119 -104.72949219 248.39111328 C-105.05949219 310.43111328 -105.38949219 372.47111328 -105.72949219 436.39111328 C-122.22949219 436.39111328 -138.72949219 436.39111328 -155.72949219 436.39111328 C-155.72949219 293.83111328 -155.72949219 151.27111328 -155.72949219 4.39111328 C-139.22949219 4.39111328 -122.72949219 4.39111328 -105.72949219 4.39111328 C-105.39949219 20.89111328 -105.06949219 37.39111328 -104.72949219 54.39111328 C-102.41949219 51.09111328 -100.10949219 47.79111328 -97.72949219 44.39111328 C-83.38810767 26.29579269 -63.32231675 13.427107 -41.60449219 5.95361328 C-40.9619751 5.73068604 -40.31945801 5.50775879 -39.6574707 5.27807617 C-26.72675697 1.1816387 -13.48889207 -0.11323005 0 0 Z M-81.97949219 77.07861328 C-102.97198994 103.48962912 -108.89074629 136.48799115 -105.39990234 169.50878906 C-101.50699126 196.9298668 -88.21486149 223.2143438 -65.94335938 240.14770508 C-44.65388089 255.79880739 -18.81959862 261.77676497 7.27050781 258.39111328 C32.51327324 254.51627557 54.33725246 241.53237826 70.11035156 221.46533203 C89.57489584 193.76443448 95.04459142 159.63300671 89.6784668 126.51977539 C85.07342865 100.84265606 72.34866851 76.52139792 50.95410156 60.88330078 C8.91654157 31.86899979 -48.22659554 38.68990212 -81.97949219 77.07861328 Z " fill="#000000" transform="translate(1065.7294921875,203.60888671875)"/>
<path d="M0 0 C0.73250473 -0.00983917 1.46500946 -0.01967834 2.2197113 -0.02981567 C43.13536854 -0.46606339 76.90765069 9.71666834 107.1796875 38.23828125 C108.19289063 39.15480469 108.19289063 39.15480469 109.2265625 40.08984375 C136.80439309 66.01300451 148.24836821 106.5468117 149.46484375 143.18359375 C150.32747549 187.97266623 138.20916088 229.67247377 107.4375 262.91015625 C84.37512455 286.69073716 51.46390604 301.72887857 18.25 302.44140625 C-14.66692784 302.77061694 -44.37061724 297.262398 -70.8203125 276.23828125 C-71.58939941 275.63741699 -71.58939941 275.63741699 -72.37402344 275.02441406 C-82.45689836 267.09739708 -91.18733389 258.29324559 -97.8203125 247.23828125 C-98.1503125 309.60828125 -98.4803125 371.97828125 -98.8203125 436.23828125 C-114.9903125 436.23828125 -131.1603125 436.23828125 -147.8203125 436.23828125 C-147.8203125 293.67828125 -147.8203125 151.11828125 -147.8203125 4.23828125 C-131.6503125 4.23828125 -115.4803125 4.23828125 -98.8203125 4.23828125 C-98.4903125 20.73828125 -98.1603125 37.23828125 -97.8203125 54.23828125 C-94.8503125 50.27828125 -91.8803125 46.31828125 -88.8203125 42.23828125 C-86.66414962 39.78299751 -84.56994602 37.45982933 -82.2578125 35.17578125 C-81.6704834 34.59489746 -81.0831543 34.01401367 -80.47802734 33.41552734 C-59.38435406 13.1649354 -29.23308549 0.32377295 0 0 Z M-67.8203125 70.23828125 C-68.42359375 70.76679688 -69.026875 71.2953125 -69.6484375 71.83984375 C-88.89252393 89.37534306 -97.34155282 117.74776685 -98.99316406 142.8671875 C-100.32882241 172.99245649 -93.0867201 203.21853098 -72.8203125 226.23828125 C-72.0571875 227.24890625 -71.2940625 228.25953125 -70.5078125 229.30078125 C-56.69139756 244.40244409 -35.43369937 256.14098898 -14.8203125 258.23828125 C-14.19898438 258.30241211 -13.57765625 258.36654297 -12.9375 258.43261719 C13.06212336 260.93903844 38.54906516 255.52400491 59.5546875 239.36328125 C61.1188167 238.01388844 62.66009424 236.63763733 64.1796875 235.23828125 C65.06914063 234.44035156 65.95859375 233.64242187 66.875 232.8203125 C87.10878689 213.74193684 97.70058296 186.37886044 98.515625 158.76953125 C98.54559289 156.09096502 98.56218475 153.4165856 98.5546875 150.73828125 C98.55447601 150.03817932 98.55426453 149.33807739 98.55404663 148.61676025 C98.51855535 136.80169634 97.48813475 125.62075341 94.1796875 114.23828125 C93.81746094 112.98660156 93.45523437 111.73492187 93.08203125 110.4453125 C88.99820778 97.97234659 82.78369065 86.17165828 74.1796875 76.23828125 C73.53773438 75.44164062 72.89578125 74.645 72.234375 73.82421875 C57.47189307 56.22908346 35.55667405 46.59092476 13.1796875 43.23828125 C-18.21250215 41.24114739 -44.73995976 48.19256501 -67.8203125 70.23828125 Z " fill="#000000" transform="translate(1549.8203125,203.76171875)"/>
<path d="M0 0 C1.54940939 1.47105427 3.0916062 2.9497589 4.625 4.4375 C5.30949219 5.04851562 5.99398437 5.65953125 6.69921875 6.2890625 C24.82824104 23.02902414 31.6495373 47.73194764 33.625 71.4375 C9.535 71.4375 -14.555 71.4375 -39.375 71.4375 C-40.365 67.4775 -41.355 63.5175 -42.375 59.4375 C-45.10168746 53.76886028 -47.5770481 49.56597024 -52.375 45.4375 C-52.93832031 44.94507813 -53.50164063 44.45265625 -54.08203125 43.9453125 C-67.52859438 32.9361101 -84.89262117 33.43600446 -101.375 34.4375 C-106.01502403 35.04516925 -110.15786977 36.40514808 -114.375 38.4375 C-115.2309375 38.85 -116.086875 39.2625 -116.96875 39.6875 C-123.08505739 43.1825328 -126.44283539 47.66563461 -128.375 54.4375 C-129.27714825 61.14722758 -129.35184627 67.82043658 -125.734375 73.7421875 C-112.47550038 90.27768056 -81.70640636 94.5930898 -62.371521 99.72817993 C-11.4118769 113.27026545 -11.4118769 113.27026545 8.625 129.4375 C9.34042969 130.00082031 10.05585938 130.56414062 10.79296875 131.14453125 C23.26894536 141.44867441 31.41075716 155.61353526 34.625 171.4375 C34.89763672 172.72527344 34.89763672 172.72527344 35.17578125 174.0390625 C38.13604324 196.434088 34.4982369 217.44086546 21.7265625 236.23046875 C20.08909453 238.36489752 18.38820075 240.40674889 16.625 242.4375 C15.861875 243.448125 15.09875 244.45875 14.3125 245.5 C-5.40908928 267.05615572 -37.01030556 276.84197862 -65.40774536 278.56051636 C-70.29232241 278.76131252 -75.17455639 278.77450684 -80.0625 278.75 C-80.80279449 278.74850952 -81.54308899 278.74701904 -82.30581665 278.7454834 C-94.19753915 278.70259401 -105.73905678 278.02234561 -117.375 275.4375 C-118.37901855 275.2206958 -118.37901855 275.2206958 -119.40332031 274.99951172 C-150.71225794 268.02566597 -179.69425849 250.5110214 -197.24072266 223.29492188 C-205.63644008 209.54661836 -209.03788436 195.48288773 -210.375 179.4375 C-185.295 179.4375 -160.215 179.4375 -134.375 179.4375 C-133.385 182.4075 -132.395 185.3775 -131.375 188.4375 C-126.8964565 199.9444147 -118.57268224 208.27176192 -107.375 213.4375 C-90.53717692 219.88339055 -71.7061572 220.31556523 -54.84765625 213.63671875 C-47.58764093 210.11566867 -41.80403367 205.14041139 -38.625 197.625 C-36.42391762 191.17897304 -36.76275369 185.51606533 -39.40625 179.25 C-43.59837558 171.40666826 -53.15197259 167.16829076 -61.125 164.125 C-61.88321045 163.83359131 -62.6414209 163.54218262 -63.42260742 163.24194336 C-77.57816708 157.98081924 -92.32342094 154.3498935 -106.8828125 150.3984375 C-176.37083286 131.51206652 -176.37083286 131.51206652 -194.375 101.4375 C-194.76042969 100.80714844 -195.14585937 100.17679687 -195.54296875 99.52734375 C-205.45938741 81.63219744 -205.81306902 57.76557665 -200.375 38.4375 C-192.34763101 14.53181873 -175.7279424 -2.24710257 -153.69873047 -13.67016602 C-108.18722259 -36.20152795 -39.25439937 -34.71355561 0 0 Z " fill="#000000" transform="translate(2930.375,227.5625)"/>
<path d="M0 0 C26.73 0 53.46 0 81 0 C88.42567453 22.20697006 95.83975046 44.41387938 103.0625 66.6875 C107.92706935 81.6884464 112.87079114 96.66074741 117.87527466 111.61557007 C122.31560746 124.88948741 126.68122696 138.18606295 131 151.5 C135.83949634 166.41475706 140.73326265 181.31044297 145.6875 196.1875 C146.1352478 197.53448975 146.1352478 197.53448975 146.59204102 198.90869141 C147.43852853 201.45403395 148.28721368 203.99863193 149.13671875 206.54296875 C149.38298508 207.28375168 149.6292514 208.02453461 149.88298035 208.7877655 C151.48346432 213.56806338 153.2070171 218.28840808 155 223 C155.19203003 222.41360245 155.38406006 221.8272049 155.58190918 221.22303772 C158.21969313 213.16900727 160.85932112 205.11558169 163.5 197.0625 C163.7249754 196.3764053 163.94995079 195.69031059 164.18174362 194.98342514 C170.70815126 175.08180875 177.25334269 155.18643381 183.81640625 135.296875 C184.15215479 134.27937101 184.48790333 133.26186703 184.83382607 132.21352959 C187.93507382 122.81549856 191.03707616 113.41771674 194.14016724 104.02029419 C200.93549406 83.44119561 207.7290973 62.86168872 214.4609375 42.26171875 C214.94511254 40.7807833 215.42929911 39.29985162 215.91349792 37.81892395 C218.56479698 29.70833784 218.56479698 29.70833784 221.20803833 21.59512329 C222.35378087 18.07305769 223.50279878 14.55207594 224.65234375 11.03125 C224.98297821 10.01032761 225.31361267 8.98940521 225.65426636 7.93754578 C225.95261383 7.02551895 226.2509613 6.11349213 226.55834961 5.17382812 C226.94318764 3.99052917 226.94318764 3.99052917 227.33580017 2.7833252 C228 1 228 1 229 0 C231.49492388 -0.09502416 233.96206014 -0.12557566 236.45727539 -0.11352539 C237.23770706 -0.11367142 238.01813873 -0.11381744 238.82221985 -0.1139679 C241.4140598 -0.11326858 244.00582878 -0.10547536 246.59765625 -0.09765625 C248.3898464 -0.09579213 250.18203706 -0.0943682 251.97422791 -0.09336853 C256.70070797 -0.08954284 261.42715752 -0.07971212 266.15362549 -0.06866455 C270.9728555 -0.05845153 275.79209042 -0.05387115 280.61132812 -0.04882812 C290.07423219 -0.03808989 299.53711356 -0.02101286 309 0 C308.44391471 3.77412273 307.70327304 7.20922232 306.36791992 10.78125 C306.03134369 11.68975708 305.69476746 12.59826416 305.34799194 13.53430176 C304.97920929 14.51298218 304.61042664 15.4916626 304.23046875 16.5 C303.64853256 18.06421692 303.64853256 18.06421692 303.05484009 19.66003418 C301.77065828 23.10855062 300.47901583 26.5542243 299.1875 30 C298.28222546 32.4275216 297.37753087 34.85525955 296.47338867 37.28320312 C294.82896409 41.69784439 293.18313809 46.11195253 291.53493595 50.52518463 C287.3547293 61.71887134 283.20588238 72.92412724 279.05947876 84.13037109 C277.80482738 87.52073321 276.54939348 90.91080454 275.29370117 94.30078125 C270.02258132 108.53143563 264.75885098 122.7648077 259.5 137 C250.87787204 160.33925225 242.23589732 183.67113871 233.59228516 207.00244141 C229.61204566 217.74631654 225.63293635 228.49061027 221.65371704 239.23486328 C220.4269588 242.54720714 219.20017941 245.85954317 217.97338867 249.171875 C217.39402809 250.73634872 217.39402809 250.73634872 216.80296326 252.33242798 C216.04043466 254.39097201 215.27755286 256.44938524 214.51429749 258.50765991 C212.64754499 263.5431379 210.78531399 268.58019322 208.93421745 273.62145138 C208.23579769 275.52292573 207.5362443 277.42397915 206.83633423 279.3249054 C205.94409556 281.74920059 205.05402747 284.17429598 204.16635132 286.6002655 C203.7667923 287.68455338 203.36723328 288.76884125 202.95556641 289.88598633 C202.6015274 290.85079422 202.2474884 291.81560211 201.88272095 292.80964661 C201 295 201 295 200 296 C197.13908182 296.09522418 194.30236379 296.12553326 191.44116211 296.11352539 C190.09495033 296.11374443 190.09495033 296.11374443 188.72154236 296.1139679 C185.74011866 296.11326842 182.7587566 296.10547441 179.77734375 296.09765625 C177.71611058 296.09579219 175.65487696 296.09436823 173.59364319 296.09336853 C168.1569599 296.08954237 162.72030314 296.07971126 157.28363037 296.06866455 C151.74052286 296.05845253 146.19741108 296.05387136 140.65429688 296.04882812 C129.76951957 296.03808908 118.88476198 296.02101149 108 296 C101.37673787 278.61999396 94.82742188 261.21740032 88.4375 243.75 C87.66529529 241.64316507 86.89291071 239.53639607 86.12036133 237.4296875 C84.52940626 233.09075255 82.93919419 228.75154651 81.34960938 224.41210938 C77.63486083 214.27255351 73.91115978 204.13628588 70.1875 194 C69.82072144 193.00141968 69.45394287 192.00283936 69.0760498 190.97399902 C60.7415523 168.28327278 52.38371377 145.60115778 44.02351379 122.91989136 C41.34606904 115.65510404 38.67092639 108.3894742 35.99789429 101.12306213 C34.22889317 96.31423603 32.45921105 91.50566067 30.68945312 86.69711304 C29.81759102 84.32777028 28.94600611 81.9583255 28.07470703 79.58877563 C23.24335192 66.45107813 18.38201092 53.32557185 13.45703125 40.22265625 C12.56263571 37.8390401 11.66826674 35.45541398 10.77392578 33.07177734 C9.08567772 28.57317875 7.38879673 24.0779651 5.68701172 19.58447266 C4.93036383 17.5707508 4.17399964 15.55692233 3.41796875 13.54296875 C3.0691011 12.62918961 2.72023346 11.71541046 2.36079407 10.77394104 C1.8905909 9.51528481 1.8905909 9.51528481 1.41088867 8.23120117 C1.13669601 7.50599777 0.86250336 6.78079437 0.58000183 6.03361511 C0 4 0 4 0 0 Z " fill="#000000" transform="translate(2057,205)"/>
<path d="M0 0 C0.79512497 -0.00979385 1.59024994 -0.01958771 2.4094696 -0.02967834 C19.39837824 -0.1959249 35.95689306 -0.33978808 52.4609375 4.23828125 C53.2461377 4.45258789 54.03133789 4.66689453 54.84033203 4.88769531 C87.74265881 14.18397271 116.58466102 35.45648566 133.60888672 65.24707031 C144.77456027 85.57266726 151.65373097 107.95871829 151.59375 131.26953125 C151.59518509 132.52256042 151.59518509 132.52256042 151.59664917 133.80090332 C151.5973254 135.55558346 151.59551025 137.31026617 151.59130859 139.06494141 C151.58595243 141.73085214 151.59127261 144.39659443 151.59765625 147.0625 C151.59699537 148.77734412 151.595714 150.49218813 151.59375 152.20703125 C151.59577423 152.99372192 151.59779846 153.7804126 151.59988403 154.59094238 C151.59673187 155.34532593 151.59357971 156.09970947 151.59033203 156.87695312 C151.58913864 157.85335754 151.58913864 157.85335754 151.58792114 158.8494873 C151.40301953 162.32782398 150.89298121 165.7819316 150.4609375 169.23828125 C73.2409375 169.23828125 -3.9790625 169.23828125 -83.5390625 169.23828125 C-83.2090625 169.89828125 -82.8790625 170.55828125 -82.5390625 171.23828125 C-82.22815375 173.27599401 -81.9213615 175.31445785 -81.63989258 177.35644531 C-78.02339333 203.19793056 -68.13083177 225.19617491 -47.08569336 241.41137695 C-36.71385103 248.99344489 -25.00103272 254.19095262 -12.5390625 257.23828125 C-11.67152344 257.46257812 -10.80398438 257.686875 -9.91015625 257.91796875 C14.80522 263.1704359 42.18439489 258.82562341 63.4609375 245.23828125 C77.57570154 235.1701368 86.09898611 222.14315972 92.4609375 206.23828125 C110.2809375 206.23828125 128.1009375 206.23828125 146.4609375 206.23828125 C141.78908285 222.58977252 141.78908285 222.58977252 138.7109375 228.86328125 C138.36587158 229.57709961 138.02080566 230.29091797 137.6652832 231.02636719 C131.88187764 242.71134097 124.08449337 252.55798102 115.4609375 262.23828125 C114.86667969 262.90601563 114.27242187 263.57375 113.66015625 264.26171875 C91.22767951 287.97446091 57.11397806 301.25590245 24.87915039 302.36108398 C20.61483267 302.45843493 16.35126507 302.48486908 12.0859375 302.48828125 C11.32804932 302.48895599 10.57016113 302.48963074 9.78930664 302.49032593 C-1.89948235 302.47380849 -13.12283542 301.94766848 -24.5390625 299.23828125 C-25.27398926 299.07199219 -26.00891602 298.90570313 -26.76611328 298.734375 C-51.26926866 293.05918568 -72.11877824 281.17853571 -90.5390625 264.23828125 C-91.56580078 263.31789063 -91.56580078 263.31789063 -92.61328125 262.37890625 C-112.78030929 243.38711294 -124.81207493 215.86988334 -130.5390625 189.23828125 C-130.78462891 188.15764404 -130.78462891 188.15764404 -131.03515625 187.05517578 C-136.25132577 163.25370803 -135.70313757 134.98489417 -130.5390625 111.23828125 C-130.28962891 110.05492187 -130.28962891 110.05492187 -130.03515625 108.84765625 C-122.45145255 74.01879483 -102.92528852 42.35203574 -72.8515625 22.67578125 C-51.07888974 8.85019409 -25.92991701 0.2648334 0 0 Z M-53.5390625 65.23828125 C-54.3228125 65.92664063 -55.1065625 66.615 -55.9140625 67.32421875 C-73.22534791 83.49344019 -80.45016643 106.26042451 -82.5390625 129.23828125 C-22.1490625 129.23828125 38.2409375 129.23828125 100.4609375 129.23828125 C100.4609375 105.23478572 93.62070908 84.42636929 76.4609375 67.23828125 C75.70039062 66.46613281 74.93984375 65.69398438 74.15625 64.8984375 C56.77219653 48.22684524 33.23032549 41.81542857 9.6484375 41.92578125 C7.79013306 41.93315308 7.79013306 41.93315308 5.89428711 41.94067383 C-16.78662594 42.23197186 -36.57793226 50.14489452 -53.5390625 65.23828125 Z " fill="#000000" transform="translate(1877.5390625,203.76171875)"/>
<path d="M0 0 C25.41 0 50.82 0 77 0 C77 24.09 77 48.18 77 73 C98.78 73 120.56 73 143 73 C143 93.46 143 113.92 143 135 C121.22 135 99.44 135 77 135 C77.09057107 161.82039132 77.09057107 161.82039132 77.20898438 188.640625 C77.26346141 199.57876053 77.3148748 210.51684926 77.34643555 221.45507812 C77.36943578 229.42155317 77.40285644 237.38790532 77.44870156 245.35428286 C77.47260649 249.57100011 77.49135313 253.78759584 77.49761391 258.00437927 C77.50367715 261.97710124 77.5237215 265.9495124 77.55427551 269.92211914 C77.56303593 271.37648864 77.56678246 272.83089878 77.56500816 274.28529358 C77.49684799 286.92551719 77.49684799 286.92551719 83.3125 297.8125 C94.60439438 307.00357682 111.55016669 305.36448023 125.375 305.625 C131.19125 305.74875 137.0075 305.8725 143 306 C143 326.79 143 347.58 143 369 C127.21049873 369.12032643 127.21049873 369.12032643 120.36914062 369.14648438 C115.73955698 369.16427088 111.11015483 369.18508025 106.48071289 369.22631836 C76.46521462 369.48651044 46.12432966 368.35284176 23.16796875 346.2578125 C-1.34838649 320.72546416 -0.32095911 286.02389123 -0.20278788 252.88554525 C-0.19013768 248.72962199 -0.18909892 244.57369467 -0.18673706 240.41775513 C-0.18056371 232.57723215 -0.16421008 224.73676611 -0.14403808 216.89626801 C-0.12154868 207.95769738 -0.11065313 199.01912379 -0.10064721 190.08053184 C-0.0798393 171.72031589 -0.04321606 153.36017782 0 135 C-11.55 135 -23.1 135 -35 135 C-35 114.54 -35 94.08 -35 73 C-23.45 73 -11.9 73 0 73 C0 48.91 0 24.82 0 0 Z " fill="#000000" transform="translate(3038,132)"/>
<path d="M0 0 C16.5 0 33 0 50 0 C50 96.69 50 193.38 50 293 C33.5 293 17 293 0 293 C0 196.31 0 99.62 0 0 Z " fill="#000000" transform="translate(1270,208)"/>
<path d="M0 0 C7.1538377 4.99251924 12.34405742 11.6477595 15 20 C16.25862372 30.94697012 15.74202846 41.22567363 9.3046875 50.421875 C4.02541847 56.962184 -2.66441393 61.39639201 -11 63 C-21.95201986 63.99267936 -31.57736126 61.7752922 -40.21484375 54.76953125 C-48.09320698 46.96012525 -50.83675754 37.87788395 -51 27 C-50.35464013 17.52038058 -46.1070229 9.63500757 -39.25 3.125 C-28.13326253 -5.73070612 -12.41616895 -7.43653936 0 0 Z " fill="#000000" transform="translate(1313,99)"/>
</svg>